<?xml version="1.0" standalone="no"?>
<!DOCTYPE svg PUBLIC "-//W3C//DTD SVG 20010904//EN"
 "http://www.w3.org/TR/2001/REC-SVG-20010904/DTD/svg10.dtd">
<svg version="1.0" xmlns="http://www.w3.org/2000/svg"
 width="700.000000pt" height="700.000000pt" viewBox="0 0 700.000000 700.000000"
 preserveAspectRatio="xMidYMid meet">
<metadata>
Created by potrace 1.14, written by Peter Selinger 2001-2017
</metadata>
<g transform="translate(0.000000,700.000000) scale(0.100000,-0.100000)"
fill="#000000" stroke="none">
<path d="M3345 6152 c-127 -56 -147 -65 -314 -144 -68 -32 -125 -58 -128 -58
-6 0 -572 -284 -646 -324 -34 -18 -102 -55 -152 -82 -49 -26 -108 -58 -130
-71 -22 -12 -47 -26 -55 -30 -8 -4 -52 -29 -98 -55 -46 -26 -86 -48 -88 -48
-3 0 -30 -16 -60 -35 -30 -19 -56 -35 -58 -35 -11 0 -511 -305 -686 -418 -286
-186 -580 -386 -619 -423 -97 -91 -71 -278 48 -338 20 -11 102 -38 182 -61
360 -103 981 -310 1186 -395 l33 -14 11 42 c19 72 79 174 136 232 58 58 267
188 621 385 47 27 223 122 317 172 50 27 203 105 340 173 271 136 301 145 388
117 56 -18 117 -80 134 -136 15 -48 10 -124 -10 -163 -31 -59 -75 -89 -318
-210 -282 -141 -507 -260 -662 -349 -32 -19 -60 -34 -62 -34 -2 0 -45 -25 -96
-55 -50 -30 -93 -55 -95 -55 -1 0 -59 -34 -127 -75 -129 -78 -147 -97 -149
-161 -1 -51 1 -55 50 -75 26 -11 61 -27 77 -35 17 -7 95 -43 175 -78 253 -112
686 -323 865 -421 111 -61 180 -61 290 0 191 106 660 332 950 459 72 32 144
63 160 71 17 7 82 34 145 59 63 26 124 51 135 56 146 67 756 285 1080 385 66
20 131 41 145 45 14 5 59 18 100 30 193 55 277 84 303 102 72 51 106 166 73
251 -28 74 -31 76 -421 337 -495 331 -996 630 -1550 925 -106 57 -638 323
-710 355 -27 12 -88 40 -135 62 -411 192 -413 192 -575 120z"/>
<path d="M957 3433 c-3 -5 -8 -48 -11 -98 -4 -49 -9 -103 -11 -120 -4 -28 -9
-98 -20 -280 -3 -38 -7 -99 -10 -135 -9 -117 -19 -402 -19 -540 -1 -208 12
-222 284 -339 104 -45 237 -104 296 -131 58 -28 110 -50 115 -50 41 0 -123
-248 -265 -404 -78 -84 -93 -184 -41 -272 58 -98 184 -136 285 -84 49 25 155
139 252 272 64 87 86 121 133 211 19 37 40 67 46 67 10 0 192 -93 294 -150 17
-10 66 -36 110 -60 44 -24 109 -60 144 -81 34 -22 65 -39 67 -39 14 0 427
-253 641 -393 163 -106 179 -115 234 -120 62 -6 113 16 265 115 115 76 427
270 509 318 217 125 326 187 465 262 167 91 640 329 760 383 36 16 102 46 147
67 46 21 85 38 87 38 3 0 33 13 68 29 35 16 97 43 138 60 100 42 141 73 171
124 22 38 24 52 23 167 0 117 -11 422 -19 535 -2 28 -6 94 -9 148 -9 149 -17
249 -21 282 -2 17 -7 73 -11 125 -3 52 -8 96 -9 98 -6 6 -326 -104 -570 -196
-494 -187 -912 -371 -1395 -616 -140 -71 -275 -140 -300 -152 -89 -44 -181
-63 -297 -60 -133 3 -203 26 -383 121 -134 71 -455 230 -585 290 -247 115
-318 146 -322 141 -3 -2 -4 -44 -4 -93 0 -80 2 -89 23 -103 45 -29 119 -113
143 -161 47 -92 61 -198 39 -304 -20 -98 -120 -233 -209 -280 -35 -19 -39 -25
-61 -113 -24 -92 -73 -232 -114 -325 -18 -41 -23 -45 -43 -38 -38 15 -352 172
-361 181 -5 6 1 33 16 67 24 56 40 92 43 103 1 3 7 23 14 45 33 105 34 99 -24
159 -117 122 -155 304 -95 456 34 85 105 176 163 206 l27 15 0 188 0 188 -152
57 c-84 32 -162 62 -173 66 -44 20 -447 159 -462 160 -1 0 -4 -3 -6 -7z"/>
</g>
</svg>
